<svg id="Layer_1" data-name="Layer 1" xmlns="http://www.w3.org/2000/svg" xmlns:xlink="http://www.w3.org/1999/xlink" viewBox="0 0 508 508"><defs><style>.cls-1{fill:url(#linear-gradient);}</style><linearGradient id="linear-gradient" x1="258" y1="512" x2="258" y2="4" gradientUnits="userSpaceOnUse"><stop offset="0" stop-color="#7367f0"/><stop offset="1" stop-color="#ce9ffc"/></linearGradient></defs><title>FastForward</title><path class="cls-1" d="M258,4a252.83,252.83,0,0,0-75,11.32,247.94,247.94,0,0,0-43,17.87L172.07,65.3,364.76,258,172.07,450.7,140,482.82a248.4,248.4,0,0,0,43,17.86A252.83,252.83,0,0,0,258,512c140,0,254-114,254-254S398,4,258,4Zm0,464.95a209.85,209.85,0,0,1-39.56-3.75L425.64,258,218.44,50.79A210.19,210.19,0,0,1,258,47.05c116.32,0,210.94,94.63,210.94,210.95S374.32,468.95,258,468.95ZM119.76,98.8,89.28,68.32,45.5,24.54,15.07,55,59.62,99.53a253.57,253.57,0,0,0,0,316.94l-44.55,44.6L45.5,491.51l43.79-43.83,30.48-30.48L279,258Zm-29.49,287a210.61,210.61,0,0,1,0-255.64L218.09,258Z" transform="translate(-4 -4)"/></svg>